# xmcd
#
# Track frame offsets: 
#        150
#        25654
#        43552
#        59170
#        77812
#        100409
#        122809
#        146500
#        169453
#
# Disc length: 2585 seconds
#
# Revision: 0
# Processed by: cddbd v1.5.2PL0 Copyright (c) Steve Scherf et al.
# Submitted via: ExactAudioCopy v1.1
#
DISCID=7e0a1709
DTITLE=Bill Morris - Mud
DYEAR=2012
DGENRE=
TTITLE0=Last Year's Starlings
TTITLE1=Mud
TTITLE2=Coronation Day China
TTITLE3=Monsoon Bride
TTITLE4=Road To Columbo
TTITLE5=One More
TTITLE6=Dreadlock Moses
TTITLE7=Volcano
TTITLE8=Shenandoah
EXTD=
EXTT0=
EXTT1=
EXTT2=
EXTT3=
EXTT4=
EXTT5=
EXTT6=
EXTT7=
EXTT8=
PLAYORDER=
